<svg width="31" height="30" viewBox="0 0 31 30" fill="none" xmlns="http://www.w3.org/2000/svg">
<path d="M26.0782 25.4624H21.6504V18.5282C21.6504 16.8747 21.6209 14.7461 19.3475 14.7461C17.0414 14.7461 16.6885 16.5477 16.6885 18.4078V25.4619H12.2609V11.2024H16.5114V13.1512H16.571C16.9963 12.4238 17.611 11.8254 18.3496 11.4198C19.0881 11.0142 19.9229 10.8165 20.7649 10.8477C25.2526 10.8477 26.08 13.7996 26.08 17.6398L26.0782 25.4624ZM7.26477 9.25338C5.84567 9.25361 4.69504 8.10334 4.69481 6.68423C4.69458 5.26513 5.84473 4.11451 7.26384 4.11427C8.68294 4.11392 9.83356 5.26419 9.8338 6.6833C9.83392 7.36478 9.56333 8.0184 9.08155 8.50038C8.59977 8.98236 7.94625 9.25322 7.26477 9.25338ZM9.4787 25.4625H5.04629V11.2024H9.47858V25.4624L9.4787 25.4625ZM28.2856 0.00217493H2.82139C1.61788 -0.0113659 0.630919 0.952719 0.616211 2.15622V27.7266C0.630452 28.9307 1.6173 29.8957 2.82127 29.8831H28.2856C29.4921 29.898 30.4828 28.933 30.4995 27.7266V2.15424C30.4823 0.9484 29.4915 -0.0155683 28.2856 0.000190493" fill="#0A66C2"/>
</svg>
